<?xml version="1.0" encoding="UTF-8"?>
<svg width="24px" height="24px" viewBox="0 0 24 24" version="1.1" xmlns="http://www.w3.org/2000/svg">
    <title>MagicMuse Icon</title>
    <g stroke="none" stroke-width="1" fill="none" fill-rule="evenodd">
        <path d="M12,2 C17.523,2 22,6.477 22,12 C22,17.523 17.523,22 12,22 C6.477,22 2,17.523 2,12 C2,6.477 6.477,2 12,2 Z" fill="#FFFFFF"></path>
        <path d="M16.5,8 L7.5,8 C7.224,8 7,8.224 7,8.5 L7,15.5 C7,15.776 7.224,16 7.5,16 L16.5,16 C16.776,16 17,15.776 17,15.5 L17,8.5 C17,8.224 16.776,8 16.5,8 Z M8,9 L16,9 L16,11 L8,11 L8,9 Z M8,12 L14,12 L14,13 L8,13 L8,12 Z M8,14 L12,14 L12,15 L8,15 L8,14 Z" fill="#AE5630"></path>
    </g>
</svg>
